<svg xmlns="http://www.w3.org/2000/svg" xmlns:xlink="http://www.w3.org/1999/xlink" id="Layer_1" data-name="Layer 1" viewBox="0 0 128.02 117.64"><defs><style>.cls-1{fill:none;}.cls-2{fill:#3c3c3b;}.cls-3{clip-path:url(#clip-path);}.cls-4{fill:url(#linear-gradient);}.cls-5{clip-path:url(#clip-path-2);}.cls-6{fill:url(#linear-gradient-2);}</style><clipPath id="clip-path"><path class="cls-1" d="M47.16,45.83A15.57,15.57,0,0,0,31.59,61.4V80.86a13.85,13.85,0,0,0,9.23,13.06V62.74a7,7,0,0,1,7-7H80.48a5.93,5.93,0,0,1,5.87,5.14H96.42A15.57,15.57,0,0,0,80.85,45.83Z"></path></clipPath><linearGradient id="linear-gradient" x1="-892.73" y1="343.84" x2="-891.73" y2="343.84" gradientTransform="matrix(64.83, 0, 0, -64.83, 57906.46, 22361.04)" gradientUnits="userSpaceOnUse"><stop offset="0" stop-color="#621622"></stop><stop offset="0.99" stop-color="#cc1901"></stop><stop offset="1" stop-color="#cc1901"></stop></linearGradient><clipPath id="clip-path-2"><path class="cls-1" d="M86.53,63.32V81.57a3,3,0,0,1-3,3H77.78V63.32H68.42V84.58H62.68a3,3,0,0,1-3-3V63.32H49.76v21.1a9.49,9.49,0,0,0,9.49,9.5h27.5a9.68,9.68,0,0,0,9.68-9.68V63.32Z"></path></clipPath><linearGradient id="linear-gradient-2" x1="-889.47" y1="344.37" x2="-888.47" y2="344.37" gradientTransform="matrix(46.66, 0, 0, -46.66, 41556.64, 16148.54)" xlink:href="#linear-gradient"></linearGradient></defs><path class="cls-2" d="M85.28,31.13V42.06H70.77l-4.35-4.42a3.43,3.43,0,0,0-4.9,0L42.37,57.1H37.84a3.41,3.41,0,0,1-2.46-5.79L61.52,24.75a3.43,3.43,0,0,1,4.9,0l11,11.2V31.13a2,2,0,0,1,2-2h3.82a2,2,0,0,1,2,2"></path><g class="cls-3"><rect class="cls-4" x="31.59" y="45.83" width="64.83" height="48.08"></rect></g><g class="cls-5"><rect class="cls-6" x="49.76" y="63.32" width="46.66" height="30.6"></rect></g></svg>